<svg width="141" height="67" viewBox="0 0 141 67" fill="none" xmlns="http://www.w3.org/2000/svg">
<path d="M57.2525 25.2964H54.0079V23.4175H57.0785V22.5041H54.0079V20.6425H57.2525V19.7291H52.9814V26.2098H57.2525V25.2964Z" fill="white"/>
<path d="M59.4012 26.2099L60.9377 23.8487L62.4546 26.2099H63.6203L61.5064 22.9304L63.5766 19.7292H62.411L60.9353 22.0248L59.4446 19.7292H58.2789L60.3582 22.9304L58.2441 26.2099H59.4012Z" fill="white"/>
<path d="M66.021 23.7742H67.3521C67.787 23.7742 68.1697 23.6932 68.5003 23.5308C68.8308 23.3683 69.0904 23.1363 69.2788 22.8348C69.4672 22.5334 69.5616 22.1737 69.5616 21.756C69.5616 21.3327 69.4687 20.9689 69.2833 20.6645C69.0974 20.3598 68.8381 20.128 68.5046 19.9683C68.1712 19.8089 67.787 19.7292 67.3521 19.7292H64.9946V26.2099H66.021V23.7742ZM66.021 20.6426H67.3781C67.61 20.6426 67.813 20.6877 67.987 20.7775C68.1611 20.8675 68.2971 20.9949 68.3959 21.1602C68.4945 21.3254 68.5438 21.5211 68.5438 21.7474C68.5438 21.9736 68.4945 22.1692 68.3959 22.3346C68.2971 22.4998 68.1611 22.629 67.987 22.7216C67.813 22.8146 67.61 22.8608 67.3781 22.8608H66.021V20.6426Z" fill="white"/>
<path d="M74.3724 26.3143C74.8419 26.3143 75.28 26.2303 75.6859 26.0621C76.0918 25.8938 76.4455 25.659 76.7471 25.3573C77.0486 25.0559 77.2852 24.7022 77.456 24.2961C77.627 23.8902 77.7127 23.4467 77.7127 22.9652C77.7127 22.4837 77.6285 22.0402 77.4607 21.6341C77.2925 21.2285 77.0559 20.8746 76.7516 20.5729C76.447 20.2715 76.0933 20.0379 75.6904 19.8727C75.2871 19.7075 74.8477 19.6247 74.3724 19.6247C73.9026 19.6247 73.4644 19.7075 73.0586 19.8727C72.6527 20.0379 72.299 20.27 71.9974 20.5686C71.6959 20.8675 71.4594 21.221 71.2885 21.6299C71.1175 22.0387 71.032 22.4837 71.032 22.9652C71.032 23.4467 71.1175 23.8902 71.2885 24.2961C71.4594 24.7022 71.6974 25.0559 72.0021 25.3573C72.3063 25.659 72.66 25.8938 73.0633 26.0621C73.4662 26.2303 73.9026 26.3143 74.3724 26.3143ZM72.2281 23.9177C72.1151 23.6249 72.0584 23.3073 72.0584 22.9652C72.0584 22.6232 72.1151 22.3071 72.2281 22.017C72.3411 21.727 72.5021 21.4719 72.7107 21.2515C72.9196 21.031 73.1645 20.86 73.4457 20.7384C73.727 20.6163 74.036 20.5555 74.3724 20.5555C74.7085 20.5555 75.0175 20.6163 75.2987 20.7384C75.58 20.86 75.825 21.031 76.0338 21.2515C76.2426 21.4719 76.4048 21.727 76.5209 22.017C76.6371 22.3071 76.6949 22.6232 76.6949 22.9652C76.6949 23.3073 76.6371 23.6249 76.5209 23.9177C76.4048 24.2106 76.2426 24.4658 76.0338 24.6833C75.825 24.9007 75.58 25.0703 75.2987 25.1923C75.0175 25.3139 74.7085 25.3749 74.3724 25.3749C74.0418 25.3749 73.7343 25.3139 73.4503 25.1923C73.166 25.0703 72.9196 24.9007 72.7107 24.6833C72.5021 24.4658 72.3411 24.2106 72.2281 23.9177Z" fill="white"/>
<rect x="0.561523" y="30.2596" width="1.0264" height="6.48072" fill="white"/>
<path d="M7.60765 34.7386L4.36299 30.2595H3.53662V36.7402H4.56303V32.2098L7.79909 36.7402H8.62546V30.2595H7.60765V34.7386Z" fill="white"/>
<path d="M14.4495 30.6642C13.9536 30.3943 13.3691 30.2596 12.6964 30.2596H10.574V36.7404H12.6964C13.3691 36.7404 13.9536 36.6041 14.4495 36.3315C14.9452 36.059 15.3293 35.6779 15.602 35.1878C15.8744 34.6976 16.0109 34.1339 16.0109 33.4955C16.0109 32.852 15.8744 32.2864 15.602 31.7994C15.3293 31.3123 14.9452 30.9337 14.4495 30.6642ZM14.6972 34.731C14.5116 35.079 14.2494 35.3487 13.91 35.5399C13.5709 35.7314 13.1719 35.827 12.7138 35.827H11.6004V31.173H12.7138C13.1719 31.173 13.5694 31.2686 13.9057 31.4601C14.2419 31.6513 14.5045 31.9197 14.6929 32.2647C14.8813 32.6098 14.9757 33.0202 14.9757 33.4955C14.9757 33.9714 14.8829 34.3829 14.6972 34.731Z" fill="white"/>
<path d="M17.6289 36.7403H21.9V35.8269H18.6553V33.9479H21.7261V33.0345H18.6553V31.173H21.9V30.2596H17.6289V36.7403Z" fill="white"/>
<path d="M24.4925 34.3047H25.8235C26.2584 34.3047 26.6411 34.2234 26.9718 34.061C27.3022 33.8988 27.5618 33.6665 27.7502 33.3651C27.9387 33.0636 28.033 32.7039 28.033 32.2862C28.033 31.8629 27.9402 31.4992 27.7547 31.1947C27.5689 30.89 27.3095 30.6582 26.9761 30.4986C26.6426 30.3391 26.2584 30.2594 25.8235 30.2594H23.4661V36.7401H24.4925V34.3047ZM24.4925 31.1728H25.8495C26.0814 31.1728 26.2844 31.2177 26.4585 31.3077C26.6325 31.3978 26.7685 31.5252 26.8674 31.6904C26.966 31.8556 27.0152 32.0514 27.0152 32.2776C27.0152 32.5039 26.966 32.6994 26.8674 32.8649C26.7685 33.0301 26.6325 33.1592 26.4585 33.2518C26.2844 33.3449 26.0814 33.3911 25.8495 33.3911H24.4925V31.1728Z" fill="white"/>
<path d="M33.9654 35.827H30.7207V33.948H33.7914V33.0344H30.7207V31.1728H33.9654V30.2597H29.6943V36.7404H33.9654V35.827Z" fill="white"/>
<path d="M36.5577 32.2099L39.7937 36.7403H40.6201V30.2596H39.6023V34.7386L36.3576 30.2596H35.5312V36.7403H36.5577V32.2099Z" fill="white"/>
<path d="M47.5969 35.1878C47.8693 34.6976 48.0055 34.1339 48.0055 33.4955C48.0055 32.8518 47.8693 32.2864 47.5969 31.7994C47.3242 31.312 46.94 30.9337 46.4441 30.664C45.9482 30.3943 45.364 30.2596 44.6913 30.2596H42.5688V36.7404H44.6913C45.364 36.7404 45.9482 36.6041 46.4441 36.3315C46.94 36.0588 47.3242 35.6779 47.5969 35.1878ZM45.9048 35.5399C45.5655 35.7311 45.1667 35.827 44.7087 35.827H43.5952V31.1728H44.7087C45.1667 31.1728 45.564 31.2686 45.9005 31.4599C46.2368 31.6513 46.4991 31.9197 46.6878 32.2647C46.8762 32.6098 46.9706 33.02 46.9706 33.4955C46.9706 33.9712 46.8777 34.3829 46.6921 34.731C46.5064 35.0788 46.2441 35.3487 45.9048 35.5399Z" fill="white"/>
<path d="M49.6238 36.7403H53.8948V35.8269H50.6502V33.9479H53.721V33.0345H50.6502V31.173H53.8948V30.2596H49.6238V36.7403Z" fill="white"/>
<path d="M59.532 34.7386L56.2873 30.2595H55.4609V36.7402H56.4873V32.2098L59.7234 36.7402H60.5498V30.2595H59.532V34.7386Z" fill="white"/>
<path d="M66.7477 36.6099C67.1102 36.4533 67.416 36.2475 67.6653 35.9922C67.9146 35.7372 68.0945 35.4645 68.2049 35.1747L67.2827 34.7398C67.1435 35.0876 66.9217 35.3689 66.6172 35.5833C66.3128 35.798 65.9458 35.9052 65.5168 35.9052C65.0875 35.9052 64.7078 35.8051 64.3771 35.605C64.0466 35.405 63.7901 35.1237 63.6075 34.7613C63.4246 34.399 63.3333 33.977 63.3333 33.4955C63.3333 33.0142 63.4246 32.5939 63.6075 32.2342C63.7901 31.8748 64.0466 31.5935 64.3771 31.3903C64.7078 31.1874 65.0875 31.0858 65.5168 31.0858C65.9458 31.0858 66.3128 31.1947 66.6172 31.4122C66.9217 31.6296 67.1435 31.9124 67.2827 32.2602L68.2049 31.8254C68.0945 31.5297 67.9146 31.2555 67.6653 31.0033C67.416 30.751 67.1102 30.5467 66.7477 30.3901C66.3852 30.2334 65.9748 30.1552 65.5168 30.1552C65.0526 30.1552 64.6266 30.2377 64.2381 30.4032C63.8494 30.5682 63.5101 30.8002 63.2201 31.0989C62.9302 31.3978 62.7054 31.7514 62.546 32.1603C62.3864 32.569 62.3069 33.0142 62.3069 33.4955C62.3069 33.9828 62.3879 34.4293 62.5503 34.8352C62.7128 35.2413 62.9375 35.5936 63.2245 35.8921C63.5116 36.191 63.8509 36.4245 64.2424 36.5923C64.6337 36.7606 65.0587 36.8448 65.5168 36.8448C65.9748 36.8448 66.3852 36.7664 66.7477 36.6099Z" fill="white"/>
<rect x="69.8662" y="30.2596" width="1.02662" height="6.48072" fill="white"/>
<path d="M74.5463 30.2594L72.2671 36.7401H73.3633L73.8676 35.2877H76.5035L76.9995 36.7401H78.0955L75.8164 30.2594H74.5463ZM74.1635 34.3741L75.1847 31.4023L76.1905 34.3741H74.1635Z" fill="white"/>
<path d="M17.5508 47.2707H21.8218V46.3573H18.5772V44.4783H21.648V43.565H18.5772V41.7034H21.8218V40.79H17.5508V47.2707Z" fill="white"/>
<path d="M25.2665 41.9209C25.597 41.7179 25.9768 41.6163 26.4061 41.6163C26.8352 41.6163 27.202 41.7252 27.5064 41.9428C27.8111 42.1601 28.0329 42.4428 28.1721 42.7909L29.0941 42.3558C28.9839 42.0602 28.804 41.786 28.5548 41.5337C28.3053 41.2817 27.9994 41.0769 27.6371 40.9205C27.2746 40.7639 26.864 40.6857 26.4061 40.6857C25.942 40.6857 25.5157 40.7682 25.1273 40.9336C24.7388 41.0989 24.3995 41.3307 24.1095 41.6294C23.8196 41.9282 23.5949 42.2819 23.4354 42.6908C23.2758 43.0995 23.1963 43.5447 23.1963 44.0262C23.1963 44.5133 23.2773 44.9597 23.4397 45.3656C23.6022 45.7717 23.8269 46.1241 24.114 46.4225C24.401 46.7214 24.7403 46.9548 25.1318 47.1228C25.523 47.291 25.9478 47.3752 26.4061 47.3752C26.864 47.3752 27.2746 47.2968 27.6371 47.1404C27.9994 46.9836 28.3053 46.7779 28.5548 46.5227C28.804 46.2676 28.9839 45.995 29.0941 45.7051L28.1721 45.27C28.0329 45.6181 27.8111 45.8994 27.5064 46.1138C27.202 46.3282 26.8352 46.4357 26.4061 46.4357C25.9768 46.4357 25.597 46.3355 25.2665 46.1355C24.936 45.9355 24.6793 45.6542 24.4966 45.2917C24.314 44.9295 24.2227 44.5075 24.2227 44.0262C24.2227 43.5447 24.314 43.1244 24.4966 42.7649C24.6793 42.4052 24.936 42.124 25.2665 41.9209Z" fill="white"/>
<path d="M36.2839 41.6339C35.9794 41.3322 35.6255 41.0989 35.2227 40.9336C34.8196 40.7682 34.3802 40.6857 33.9047 40.6857C33.435 40.6857 32.9969 40.7682 32.591 40.9336C32.1851 41.0989 31.8313 41.3307 31.5298 41.6294C31.2283 41.9282 30.9918 42.2819 30.8208 42.6908C30.6497 43.0995 30.5642 43.5447 30.5642 44.0259C30.5642 44.5075 30.6497 44.9512 30.8208 45.357C30.9918 45.7629 31.2298 46.1166 31.5343 46.4182C31.8386 46.7199 32.1922 46.9548 32.5955 47.1228C32.9984 47.291 33.435 47.3752 33.9047 47.3752C34.3744 47.3752 34.8123 47.291 35.2182 47.1228C35.624 46.9548 35.9779 46.7199 36.2794 46.4182C36.5808 46.1166 36.8174 45.7629 36.9884 45.357C37.1594 44.9512 37.245 44.5075 37.245 44.0259C37.245 43.5447 37.1609 43.101 36.9929 42.6951C36.8247 42.2892 36.5883 41.9353 36.2839 41.6339ZM36.0533 44.9785C35.9373 45.2715 35.7749 45.5266 35.5662 45.7442C35.3574 45.9615 35.1122 46.1312 34.8312 46.253C34.5497 46.3746 34.241 46.4357 33.9047 46.4357C33.574 46.4357 33.2665 46.3746 32.9825 46.253C32.6984 46.1312 32.452 45.9615 32.2431 45.7442C32.0343 45.5266 31.8734 45.2715 31.7604 44.9785C31.6473 44.6856 31.5908 44.3682 31.5908 44.0259C31.5908 43.6839 31.6473 43.368 31.7604 43.078C31.8734 42.7877 32.0343 42.5329 32.2431 42.3122C32.452 42.0917 32.6969 41.9209 32.9782 41.7991C33.2594 41.6771 33.5682 41.6163 33.9047 41.6163C34.241 41.6163 34.5497 41.6771 34.8312 41.7991C35.1122 41.9209 35.3574 42.0917 35.5662 42.3122C35.7749 42.5329 35.9373 42.7877 36.0533 43.078C36.1694 43.368 36.2274 43.6839 36.2274 44.0259C36.2274 44.3682 36.1694 44.6856 36.0533 44.9785Z" fill="white"/>
<path d="M43.0732 45.269L39.8286 40.7899H39.0022V47.2707H40.0286V42.7405L43.2647 47.2707H44.091V40.7899H43.0732V45.269Z" fill="white"/>
<path d="M51.5681 41.6339C51.2636 41.3322 50.9097 41.0989 50.5069 40.9336C50.1038 40.7682 49.6644 40.6857 49.1889 40.6857C48.7192 40.6857 48.2811 40.7682 47.8752 40.9336C47.4693 41.0989 47.1155 41.3307 46.814 41.6294C46.5125 41.9282 46.276 42.2819 46.1049 42.6908C45.9339 43.0995 45.8484 43.5447 45.8484 44.0259C45.8484 44.5075 45.9339 44.9512 46.1049 45.357C46.276 45.7629 46.514 46.1166 46.8185 46.4182C47.1228 46.7199 47.4764 46.9548 47.8797 47.1228C48.2826 47.291 48.7192 47.3752 49.1889 47.3752C49.6586 47.3752 50.0965 47.291 50.5023 47.1228C50.9082 46.9548 51.2621 46.7199 51.5636 46.4182C51.865 46.1166 52.1016 45.7629 52.2726 45.357C52.4436 44.9512 52.5292 44.5075 52.5292 44.0259C52.5292 43.5447 52.4451 43.101 52.2771 42.6951C52.1089 42.2892 51.8725 41.9353 51.5681 41.6339ZM51.3375 44.9785C51.2215 45.2715 51.0591 45.5266 50.8504 45.7442C50.6416 45.9615 50.3964 46.1312 50.1154 46.253C49.8339 46.3746 49.5252 46.4357 49.1889 46.4357C48.8582 46.4357 48.5507 46.3746 48.2667 46.253C47.9827 46.1312 47.7362 45.9615 47.5274 45.7442C47.3185 45.5266 47.1576 45.2715 47.0445 44.9785C46.9315 44.6856 46.875 44.3682 46.875 44.0259C46.875 43.6839 46.9315 43.368 47.0445 43.078C47.1576 42.7877 47.3185 42.5329 47.5274 42.3122C47.7362 42.0917 47.9812 41.9209 48.2624 41.7991C48.5437 41.6771 48.8524 41.6163 49.1889 41.6163C49.5252 41.6163 49.8339 41.6771 50.1154 41.7991C50.3964 41.9209 50.6416 42.0917 50.8504 42.3122C51.0591 42.5329 51.2215 42.7877 51.3375 43.078C51.4535 43.368 51.5116 43.6839 51.5116 44.0259C51.5116 44.3682 51.4535 44.6856 51.3375 44.9785Z" fill="white"/>
<path d="M50.6241 38.4936H49.3366L48.7017 39.9288H49.6759L50.6241 38.4936Z" fill="white"/>
<path d="M57.4376 43.8307L55.2432 40.79H54.2864V47.2707H55.3128V42.5774L57.3658 45.4442H57.4702L59.5318 42.6266V47.2707H60.5497V40.79H59.5927L57.4376 43.8307Z" fill="white"/>
<rect x="62.498" y="40.7899" width="1.02641" height="6.48072" fill="white"/>
<path d="M67.3522 41.9209C67.6826 41.7179 68.0625 41.6163 68.4918 41.6163C68.9209 41.6163 69.2877 41.7252 69.5923 41.9428C69.8968 42.1601 70.1185 42.4428 70.258 42.7909L71.18 42.3558C71.0698 42.0602 70.8899 41.786 70.6404 41.5337C70.391 41.2817 70.085 41.0769 69.7228 40.9205C69.3603 40.7639 68.9497 40.6857 68.4918 40.6857C68.0277 40.6857 67.6014 40.7682 67.213 40.9336C66.8245 41.0989 66.4852 41.3307 66.1951 41.6294C65.9053 41.9282 65.6805 42.2819 65.5211 42.6908C65.3615 43.0995 65.282 43.5447 65.282 44.0262C65.282 44.5133 65.363 44.9597 65.5254 45.3656C65.6879 45.7717 65.9126 46.1241 66.1996 46.4225C66.4867 46.7214 66.826 46.9548 67.2175 47.1228C67.6087 47.291 68.0335 47.3752 68.4918 47.3752C68.9497 47.3752 69.3603 47.2968 69.7228 47.1404C70.085 46.9836 70.391 46.7779 70.6404 46.5227C70.8899 46.2676 71.0698 45.995 71.18 45.7051L70.258 45.27C70.1185 45.6181 69.8968 45.8994 69.5923 46.1138C69.2877 46.3282 68.9209 46.4357 68.4918 46.4357C68.0625 46.4357 67.6826 46.3355 67.3522 46.1355C67.0217 45.9355 66.765 45.6542 66.5823 45.2917C66.3997 44.9295 66.3083 44.5075 66.3083 44.0262C66.3083 43.5447 66.3997 43.1244 66.5823 42.7649C66.765 42.4052 67.0217 42.124 67.3522 41.9209Z" fill="white"/>
<path d="M74.5459 40.7899L72.2668 47.2706H73.3629L73.8676 45.8181H76.5033L76.9992 47.2706H78.0952L75.816 40.7899H74.5459ZM74.1634 44.9045L75.1842 41.933L76.19 44.9045H74.1634Z" fill="white"/>
<path d="M101.286 35.0176H112.508V32.3713H101.286V28.1179H98.3145V44.9344H112.512V42.2881H101.286V35.0176ZM98.3145 25.1465H112.512V22.5048H98.3145V25.1465Z" fill="white"/>
<path d="M129.082 35.0176H140.305V32.3713H129.082V28.1179H126.111V44.9344H140.309V42.2881H129.082V35.0176ZM126.111 25.1465H140.309V22.5048H126.111V25.1465Z" fill="white"/>
<rect x="117.833" y="22.5046" width="2.97135" height="22.4298" fill="white"/>
<path d="M140.309 52.8895V66.3018H74.7063V52.8895H77.6768V63.3313H137.338V52.8895H140.309Z" fill="white"/>
<path d="M140.309 14.1105V0.698277H74.7063V14.5658H77.6768V3.66876H137.338V14.1105H140.309Z" fill="white"/>
</svg>
